<?xml version="1.0" encoding="UTF-8"?>
<svg id="Layer_1" xmlns="http://www.w3.org/2000/svg" version="1.1" xmlns:xlink="http://www.w3.org/1999/xlink" viewBox="0 0 124.3 166.6">
  <!-- Generator: Adobe Illustrator 30.0.0, SVG Export Plug-In . SVG Version: 2.1.1 Build 123)  -->
  <defs>
    <style>
      .st0, .st1 {
        isolation: isolate;
      }

      .st0, .st2 {
        fill: #ebe7de;
        font-family: Sriracha-Regular, Sriracha;
        font-size: 20px;
      }

      .st3 {
        fill: #fff;
      }

      .st4 {
        fill: #eb5d37;
      }

      .st4, .st5 {
        stroke: #ebe7de;
        stroke-miterlimit: 10;
        stroke-width: 2.9px;
      }

      .st5 {
        fill: #f8bb00;
      }
    </style>
    <path id="path" d="M51.4,150.5c44.1-32.5,58-106.8,58-106.8"/>
  </defs>
  <g class="st1">
    <text class="st0" transform="translate(15.2 16.6)"><tspan x="0" y="0">Here</tspan></text>
  </g>
  <path class="st4" d="M121.8,22.6c1.1,2.1,1.1,5.2.8,7.8-.4,3.4-.8,6.9-1.3,10.2-.9,6-4.3,11.9-6.9,17.6-1.7,3.7-3.6,7.1-4.2,10.9-.7,3.7,0,6.7.3,10.6.4,5,.4,10.3.6,15.4,0,3,.4,6.7-.2,9.1-.6,2.7-3.5,2.5-5.8,2.3-2.6-.2-5.7-.6-8,.9-1.8,1.1-2.2,3.2-3.3,6.1-1.2,3.4-3.2,6.5-4.8,9.7-.9,1.8-1.5,3.5-1.6,5.4-.2,2.8.8,4.4-.9,5.9-2.4,2-5.8,2.6-8.7,3.6-3.1,1-6.7,2-8.5,4.4-3.2,4.1-3.1,10.7-6,15.1-1.6,2.4-4.1,3.8-6.7,5.1-2.7,1.3-5.6,2.5-8.3,2.7-4.2.4-9.4-2-10.3-6.2-.4-2.6.5-5.3.5-7.9.2-3.1-.2-6.4.4-9.7.3-2.5,1.2-4.9,1.8-7.3,1.2-4.2,0-7.9-1.1-12.1-.4-1.9-.5-3.8-.6-5.8-.2-2.6.5-6-1.5-7.9-1.7-1.4-5-.5-6.7-2.2-1.1-1.2-1.3-3.1-1.5-4.8-.1-1.8-.2-3.7-.7-5.4-.6-2.2-2-4.1-2.7-5.8-.8-1.8-1.1-3.6-1.8-5.5-1-4.2-6.4-5.6-8.4-9.1-1.2-2.4-1.1-5.4,1.9-6.1,2.8-.6,5.9.2,8.8.2,4,.2,7.2-1.9,10.8-3.3,4.3-1.7,9.8-1.7,12.8-5.6,2.2-2.9.6-5.8-.2-8.9-.8-2.8.7-6.5,2.1-9.1,1.2-2.4,2.3-4.5,3.7-5.4,4-2.9,10.3,4.8,16.1,4.1,2.7-.1,4.5-2,6.5-4,2.1-2,4.1-3.9,6.7-4.8,3.8-1.3,8,0,11.2-2.2,1.4-1,2.7-2.2,4-3.4,2.4-2.4,5.9-2.5,9-3.4,4-1,9.6-6,12.6-.9h0c0,0,0,0,0,0Z"/>
  <circle class="st5" cx="32.3" cy="87.7" r="10.5"/>
  <path class="st3" d="M6.1,47c1.8,1.5,5.7,1.7,7.7.5,3.9-2.3,2.4-7.4-1.6-8.2-3-.6-5,1.1-7.2,2.7,0,0,0,.2-.2,0-.5-.7-.8-2.8-.8-3.7-.2-8.3,8-16.4,16.2-12.1.6.3,1.3,1.2,2.2.4,1.3-1.2-.5-2.1-1.5-2.6-6.3-3.3-13.6.3-16.9,6.1-2.3,4-3.2,9.8-.6,13.9C-.4,49.4-.5,56.5.7,62.7c1.4,7.2,4.8,14,8.9,20l-1.8-1c-1-.3-2,1.2-.9,2.1.9.8,5.4,3.4,6.6,3.8.7.2,1.6-.1,1.6-1l-1.4-8.3c-.6-1-2.2-.9-2.2.4,0,.8.4,2.3.6,3.2,0,.1.1.4-.1.2-2.9-4.2-5.4-8.8-7.2-13.6-2.6-7.1-4.1-15.8.1-22.6l1.3,1.1h0ZM11.1,41.4c2.5,0,4.1,3.1,1.2,4.4-2,.9-4.6-.3-6.1-1.6,1.1-1.3,3.1-2.8,4.9-2.7Z"/>
  <text>
    <textPath startOffset="1.8%" xlink:href="#path"><tspan class="st2"><tspan x="0" y="0">Tamil Nadu</tspan></tspan>
    </textPath></text>
</svg>